<?xml version="1.0" standalone="no"?>
<!DOCTYPE svg PUBLIC "-//W3C//DTD SVG 20010904//EN"
 "http://www.w3.org/TR/2001/REC-SVG-20010904/DTD/svg10.dtd">
<svg version="1.0" xmlns="http://www.w3.org/2000/svg"
 width="295.000000pt" height="255.000000pt" viewBox="0 0 295.000000 255.000000"
 preserveAspectRatio="xMidYMid meet">
<metadata>
Created by potrace 1.16, written by Peter Selinger 2001-2019
</metadata>
<g transform="translate(0.000000,255.000000) scale(0.100000,-0.100000)"
fill="#000000" stroke="none">
<path d="M0 1275 l0 -1275 1475 0 1475 0 0 1275 0 1275 -1475 0 -1475 0 0
-1275z m624 87 c84 -163 71 -161 146 -17 54 104 68 125 87 125 l23 0 0 -185 0
-185 -25 0 -25 0 0 133 0 132 -54 -100 c-72 -134 -78 -134 -147 -8 l-54 98 -3
-127 -3 -128 -24 0 -25 0 0 185 0 185 25 0 c21 0 32 -15 79 -108z m426 -77 l0
-185 -25 0 -25 0 0 185 0 185 25 0 25 0 0 -185z m380 160 c0 -24 -3 -25 -60
-25 l-60 0 0 -160 0 -160 -30 0 -30 0 0 160 0 160 -60 0 c-57 0 -60 1 -60 25
l0 25 150 0 150 0 0 -25z m305 11 c59 -25 75 -97 31 -141 -23 -23 -24 -25 -7
-37 48 -34 53 -94 12 -140 l-29 -33 -116 -3 -116 -4 0 186 0 186 95 0 c60 0
108 -5 130 -14z m215 -171 l0 -185 -25 0 -25 0 0 185 0 185 25 0 25 0 0 -185z
m262 50 l103 -136 3 136 3 135 24 0 25 0 0 -185 c0 -237 0 -237 -142 -50
l-103 135 -3 -135 -3 -135 -24 0 -25 0 0 185 c0 237 0 237 142 50z"/>
<path d="M1570 1371 l0 -61 65 0 c52 0 69 4 85 20 25 25 25 41 1 71 -15 19
-30 24 -85 27 l-66 4 0 -61z"/>
<path d="M1570 1205 l0 -67 70 4 c78 4 103 19 103 63 0 44 -25 59 -103 63
l-70 4 0 -67z"/>
</g>
</svg>
